<?xml version="1.0" standalone="no"?><!DOCTYPE svg PUBLIC "-//W3C//DTD SVG 1.1//EN" "http://www.w3.org/Graphics/SVG/1.1/DTD/svg11.dtd"><svg t="1547900681328" class="icon" style="" viewBox="0 0 1024 1024" version="1.1" xmlns="http://www.w3.org/2000/svg" p-id="3342" xmlns:xlink="http://www.w3.org/1999/xlink" width="128" height="128"><defs><style type="text/css"></style></defs><path d="M800.1536 189.952H223.8464c-35.1232 0-63.8976 28.7744-63.8976 63.8976v384.2048c0 35.1232 28.7744 63.8976 63.8976 63.8976h576.2048c35.1232 0 63.8976-28.7744 63.8976-63.8976V253.8496c0.1024-35.1232-28.672-63.8976-63.7952-63.8976zM768 493.9776H640c-4.3008 0-8.2944-1.6384-11.264-4.7104l-48.3328-48.3328L526.336 549.0688c-2.7648 5.4272-8.2944 8.8064-14.336 8.8064h-1.1264c-6.4512-0.512-11.9808-4.8128-14.0288-10.9568l-51.8144-155.3408-46.6944 93.4912c-2.7648 5.4272-8.2944 8.8064-14.336 8.8064H256c-8.8064 0-15.9744-7.168-15.9744-15.9744s7.168-15.9744 15.9744-15.9744h118.1696l59.5968-119.1936c2.8672-5.7344 9.3184-9.1136 15.4624-8.8064 6.4512 0.512 11.9808 4.8128 14.0288 10.9568L515.072 500.224l46.6944-93.3888c2.3552-4.608 6.656-7.7824 11.776-8.6016 5.0176-0.9216 10.24 0.8192 13.824 4.5056l59.2896 59.2896H768c8.8064 0 15.9744 7.168 15.9744 15.9744s-7.168 15.9744-15.9744 15.9744zM832 765.952h-640c-17.7152 0-31.9488 14.336-31.9488 31.9488s14.336 31.9488 31.9488 31.9488h640c17.7152 0 31.9488-14.336 31.9488-31.9488S849.7152 765.952 832 765.952z" p-id="3343" fill="#007bff"></path></svg>